<svg xmlns="http://www.w3.org/2000/svg" width="1024" height="1024" viewBox="0 0 1024 1024">
<g>
<path d="M 551.50 568.03 C534.68,569.50 490.16,570.07 480.14,568.93 C457.01,566.31 436.49,557.84 416.13,542.50 C383.52,517.94 360.88,478.24 353.07,431.91 C350.73,418.07 349.09,401.90 349.03,392.28 C349.00,386.68 349.32,385.71 352.25,382.36 C362.09,371.13 399.23,362.70 444.00,361.53 C463.66,361.01 462.33,361.90 439.50,364.53 C408.94,368.05 385.97,373.35 372.25,380.06 C359.52,386.29 358.35,390.97 368.02,396.92 C380.12,404.36 409.50,411.04 445.22,414.46 C465.70,416.41 505.50,417.62 506.32,416.30 C506.72,415.65 499.68,415.09 486.22,414.70 C450.66,413.67 406.47,406.46 392.97,399.48 C387.21,396.51 391.50,393.01 405.17,389.55 C421.44,385.44 450.92,382.07 471.20,382.02 C476.89,382.00 476.91,382.01 477.89,385.55 C481.31,397.94 493.79,408.88 510.87,414.48 C515.44,415.98 518.37,416.14 530.37,415.58 C586.85,412.94 627.84,404.89 639.25,394.20 C642.77,390.90 642.72,388.89 638.98,384.62 C633.30,378.16 611.74,370.88 584.00,366.05 C566.11,362.95 563.48,361.92 575.00,362.57 C605.61,364.28 636.36,371.15 647.32,378.73 C652.90,382.58 654.00,385.44 654.00,396.06 C654.00,404.39 654.16,405.15 655.75,404.49 C661.59,402.06 667.29,401.00 674.50,401.00 C688.28,401.00 696.52,404.66 703.97,414.08 C712.20,424.49 713.84,440.30 708.33,456.12 C697.97,485.87 665.65,510.02 621.50,521.01 L 609.50 524.00 L 603.56 530.75 C595.97,539.38 586.11,548.90 578.61,554.84 L 572.72 559.50 L 577.61 560.16 C580.30,560.53 587.22,560.88 593.00,560.94 C599.44,561.02 602.92,561.39 602.00,561.92 C600.46,562.81 572.76,566.16 551.50,568.03 ZM 487.50 557.36 C502.69,559.08 520.93,555.98 536.31,549.08 C559.96,538.48 583.16,513.91 596.87,484.97 C605.41,466.96 611.16,446.55 612.61,429.09 C613.27,421.21 613.21,420.80 611.40,421.34 C603.76,423.62 569.41,428.30 546.50,430.17 C527.30,431.74 474.95,431.71 455.50,430.12 C421.56,427.35 398.34,423.41 377.25,416.85 C371.61,415.10 366.73,413.93 366.40,414.26 C365.39,415.27 368.93,435.90 372.09,447.44 C384.63,493.22 411.13,528.20 446.62,545.86 C458.62,551.83 472.12,555.62 487.50,557.36 ZM 555.63 597.52 C540.16,598.96 491.91,600.20 481.50,599.42 C478.75,599.22 469.52,598.57 461.00,597.98 C420.58,595.19 382.33,588.06 358.44,578.87 C330.16,567.99 321.07,555.56 333.47,544.72 C338.61,540.23 358.91,532.13 362.23,533.25 C362.93,533.48 361.70,534.25 359.50,534.96 C352.94,537.07 342.06,543.11 339.91,545.84 C336.62,550.02 337.64,554.76 342.65,558.57 C357.07,569.54 400.46,578.84 456.50,582.96 C477.62,584.52 533.23,584.24 556.79,582.47 C613.78,578.18 657.90,567.85 667.90,556.46 C671.38,552.50 671.63,551.11 669.57,547.13 C667.70,543.51 662.43,540.12 652.27,535.98 C647.75,534.13 644.24,532.43 644.48,532.18 C645.24,531.42 662.21,537.08 667.99,540.01 C690.02,551.20 681.83,567.66 648.28,579.65 C624.74,588.07 594.38,593.92 555.63,597.52 ZM 525.05 286.00 C519.63,294.19 511.42,303.71 512.55,300.50 C517.57,286.19 518.34,282.85 518.76,273.34 C519.15,264.78 518.88,262.15 517.06,256.69 C513.92,247.24 508.77,239.40 497.50,226.86 C492.00,220.75 486.00,213.66 484.17,211.12 C466.22,186.25 468.07,156.74 488.90,135.89 C497.52,127.25 505.08,122.92 516.77,119.93 C524.75,117.89 542.40,117.23 543.45,118.93 C543.77,119.44 541.43,120.39 538.26,121.04 C513.06,126.23 496.77,145.50 498.26,168.37 C499.16,182.17 503.85,191.25 520.54,211.50 C533.73,227.50 537.56,237.28 536.76,252.94 C536.17,264.52 532.61,274.58 525.05,286.00 ZM 625.00 502.17 C625.00,502.22 625.00,502.28 625.00,502.33 C624.99,502.52 624.99,502.67 625.06,502.76 C625.32,503.11 626.61,502.67 632.65,500.62 C633.09,500.47 633.56,500.31 634.06,500.14 C667.59,488.80 692.30,464.60 693.77,441.67 C694.31,433.29 693.09,428.44 689.29,423.94 C685.56,419.50 681.62,417.85 674.64,417.81 C667.12,417.77 661.81,419.84 656.67,424.80 C651.77,429.52 649.60,433.87 648.08,442.00 C645.96,453.30 637.96,475.67 631.36,488.73 C627.86,495.66 625.00,501.71 625.00,502.17 ZM 276.57 738.11 C271.19,740.55 261.78,740.55 256.50,738.10 C248.05,734.19 243.86,726.01 246.05,717.75 C248.56,708.32 254.60,704.20 273.27,699.17 C286.72,695.55 288.02,694.48 287.94,687.10 C287.82,675.32 283.27,670.00 273.31,670.00 C266.93,670.00 260.53,672.87 259.68,676.11 C259.06,678.47 261.08,684.31 262.90,685.44 C264.75,686.58 264.13,688.87 261.49,690.60 C259.37,691.99 258.53,692.05 255.96,690.98 C252.30,689.47 251.00,687.28 251.00,682.64 C251.00,674.99 259.86,668.95 272.15,668.21 C286.18,667.37 295.00,671.39 299.14,680.49 C300.73,684.01 300.96,687.46 300.98,708.73 L 301.00 732.95 L 303.60 734.66 C305.68,736.02 306.57,736.12 308.08,735.18 C310.74,733.52 311.48,733.71 309.87,735.65 C308.07,737.83 302.77,740.00 299.28,740.00 C295.30,739.99 290.06,736.46 288.84,732.96 L 287.79 729.97 L 284.21 733.12 C282.24,734.85 278.80,737.09 276.57,738.11 ZM 216.41 736.19 C205.64,741.23 188.84,741.55 176.50,736.95 C163.31,732.04 153.55,722.48 147.77,708.82 C145.14,702.63 144.60,699.88 144.22,690.98 C143.66,678.18 144.95,671.37 149.75,661.74 C159.10,642.97 178.48,632.70 201.54,634.31 C219.33,635.55 232.20,644.44 234.51,657.09 C236.80,669.64 224.60,678.80 216.12,670.90 L 213.78 668.72 L 217.64 667.37 C219.76,666.63 221.60,666.02 221.72,666.02 C222.85,665.94 225.00,659.21 224.98,655.80 C224.92,639.97 201.90,630.95 183.31,639.46 C172.96,644.20 164.06,656.76 161.11,670.80 C159.53,678.35 159.74,693.55 161.52,700.54 C168.81,729.10 195.36,743.48 218.82,731.59 C224.32,728.80 231.20,722.45 233.47,718.05 C234.34,716.37 235.49,715.00 236.03,715.00 C237.56,715.00 237.22,715.99 233.93,721.11 C229.71,727.69 223.91,732.68 216.41,736.19 ZM 410.50 736.77 C403.52,740.38 390.82,740.93 383.30,737.96 C376.24,735.16 368.72,728.17 365.34,721.26 C361.41,713.22 360.82,700.06 363.97,690.59 C366.79,682.10 373.72,674.23 381.23,670.98 C388.36,667.89 398.88,667.24 406.41,669.43 C416.54,672.38 424.00,682.44 424.00,693.18 L 424.00 697.00 L 375.00 697.00 L 375.01 699.25 C375.02,704.14 377.21,714.62 379.16,719.16 C383.34,728.87 395.62,736.23 404.78,734.51 C410.46,733.45 417.63,729.35 420.58,725.49 C423.69,721.41 425.13,721.58 422.51,725.72 C419.36,730.67 415.60,734.13 410.50,736.77 ZM 348.50 738.00 C348.13,738.60 341.49,739.00 331.94,739.00 C321.98,739.00 316.00,738.62 316.00,738.00 C316.00,737.45 317.12,737.00 318.50,737.00 C322.15,737.00 324.98,733.67 325.10,729.25 C325.18,726.18 325.12,681.19 325.03,673.25 C325.00,671.25 324.49,671.00 320.50,671.00 C318.02,671.00 316.00,670.55 316.00,670.00 C316.00,669.45 317.96,669.00 320.36,669.00 L 324.71 669.00 L 325.39 660.75 C326.69,645.00 331.19,636.54 340.72,631.94 C347.39,628.71 362.74,628.50 368.00,631.56 C372.67,634.28 373.20,638.43 369.43,642.90 C366.25,646.69 365.48,646.27 365.87,640.96 C366.10,637.68 365.63,636.48 363.15,634.00 C360.63,631.48 359.37,631.00 355.22,631.00 C349.50,631.00 344.63,633.76 341.80,638.60 C339.67,642.25 337.75,655.23 338.19,663.00 L 338.50 668.50 L 347.75 668.79 C358.64,669.13 360.31,670.99 349.75,671.01 C345.76,671.02 341.46,671.30 340.20,671.64 L 337.89 672.26 L 338.20 702.72 L 338.50 733.18 L 340.86 735.09 C342.16,736.14 344.55,737.00 346.17,737.00 C347.88,737.00 348.86,737.42 348.50,738.00 ZM 480.01 347.25 C480.00,352.19 478.16,350.14 477.44,344.39 C476.45,336.45 478.27,327.08 483.55,312.98 C486.06,306.28 488.57,298.28 489.14,295.21 C491.46,282.67 486.81,272.19 476.50,266.68 C470.68,263.57 459.19,263.67 453.00,266.88 C445.29,270.88 438.00,279.42 438.00,284.46 C438.00,285.31 437.49,286.00 436.86,286.00 C435.19,286.00 436.62,275.65 439.06,270.13 C442.20,263.02 445.32,259.64 452.16,255.94 C458.18,252.67 459.00,252.50 468.50,252.50 C477.94,252.50 478.84,252.69 484.65,255.84 C493.94,260.87 498.83,267.71 501.13,278.86 C503.20,288.86 500.89,297.62 490.60,318.96 C482.11,336.57 480.02,342.15 480.01,347.25 ZM 265.30 733.04 C271.17,736.62 278.91,735.13 285.25,729.20 L 288.00 726.63 L 288.00 711.81 C288.00,703.67 287.64,697.00 287.19,697.00 C284.59,697.00 268.90,704.32 265.64,707.06 C256.82,714.46 256.65,727.76 265.30,733.04 ZM 376.67 694.33 C377.50,695.17 407.26,695.22 409.42,694.39 C410.51,693.97 411.00,692.50 410.99,689.64 C410.99,683.31 409.19,678.17 405.61,674.28 C402.91,671.32 401.53,670.66 397.20,670.25 C390.75,669.63 387.05,671.09 382.57,676.06 C378.22,680.86 374.56,692.22 376.67,694.33 ZM 500.41 798.25 C499.07,800.86 497.73,803.00 497.43,803.00 C497.14,803.00 496.19,801.31 495.33,799.25 C491.37,789.78 497.70,773.06 507.54,766.98 C515.40,762.12 526.00,762.50 526.00,767.64 C526.00,772.63 522.80,777.13 515.34,782.65 C506.25,789.38 503.52,792.23 500.41,798.25 ZM 516.69 806.91 C511.28,809.53 505.00,809.63 501.93,807.15 L 499.64 805.29 L 502.67 799.90 C504.45,796.73 507.94,792.73 511.10,790.22 C522.94,780.84 524.83,778.93 526.64,774.53 C528.77,769.34 529.99,769.23 531.74,774.08 C535.41,784.17 527.35,801.75 516.69,806.91 ZM 406.41 651.10 C400.81,654.83 389.00,661.28 389.00,660.60 C389.00,659.85 402.14,642.71 403.46,641.74 C405.22,640.45 410.24,641.40 411.39,643.25 C412.84,645.56 411.46,647.74 406.41,651.10 ZM 752.00 849.44 C752.00,852.31 750.24,853.79 749.41,851.63 C749.09,850.80 748.98,847.06 749.17,843.31 L 749.50 836.50 L 753.35 836.18 C759.76,835.66 762.83,839.95 759.46,844.75 C758.07,846.74 758.08,847.19 759.52,849.38 C760.52,850.92 760.74,852.05 760.10,852.44 C759.54,852.78 758.38,851.70 757.52,850.03 C755.54,846.22 752.00,845.84 752.00,849.44 ZM 347.50 851.00 C346.90,852.90 345.00,853.85 345.00,852.25 C345.00,851.84 346.17,847.99 347.60,843.70 C349.48,838.06 350.62,835.98 351.72,836.20 C353.67,836.58 359.35,851.67 357.89,852.57 C357.33,852.92 356.62,852.26 356.32,851.10 C355.54,848.12 348.44,848.04 347.50,851.00 ZM 293.71 851.00 C293.19,852.99 291.00,853.85 291.00,852.07 C291.00,849.72 297.01,836.47 298.19,836.23 C299.01,836.06 300.51,838.83 302.23,843.67 C304.92,851.27 305.05,854.16 302.56,850.75 C300.68,848.18 294.40,848.36 293.71,851.00 ZM 253.01 849.00 C250.31,849.00 248.85,849.59 247.87,851.08 C245.11,855.22 245.31,851.72 248.26,843.95 C249.92,839.58 251.83,836.00 252.51,836.00 C253.96,836.00 259.42,850.38 258.66,852.22 C258.33,853.02 257.88,852.66 257.45,851.25 C256.90,849.44 256.04,849.00 253.01,849.00 ZM 395.01 849.00 C392.27,849.00 390.79,849.61 389.57,851.25 L 387.90 853.50 L 388.40 850.41 C389.04,846.33 393.64,836.00 394.81,836.00 C396.19,836.00 401.97,851.90 400.83,852.60 C400.30,852.93 399.62,852.26 399.32,851.10 C398.88,849.44 397.99,849.00 395.01,849.00 ZM 651.00 848.94 C651.00,851.88 649.85,853.52 648.64,852.31 C647.62,851.29 647.90,837.18 648.95,836.53 C649.47,836.21 650.20,837.53 650.56,839.47 C651.16,842.69 651.53,843.00 654.61,843.00 C657.82,843.00 658.00,842.81 658.00,839.50 C658.00,835.98 659.57,834.61 660.18,837.61 C660.83,840.89 659.81,853.00 658.92,852.45 C658.41,852.14 658.00,850.29 658.00,848.33 C658.00,845.51 657.68,844.91 656.42,845.39 C655.55,845.73 653.97,846.00 652.92,846.00 C651.46,846.00 651.00,846.71 651.00,848.94 ZM 493.19 846.57 C492.90,851.14 491.97,853.63 490.93,852.60 C490.70,852.37 490.65,848.74 490.83,844.53 C491.21,835.73 491.96,835.43 496.46,842.27 C498.13,844.81 499.84,846.92 500.25,846.95 C500.66,846.98 501.00,844.53 501.00,841.50 C501.00,838.47 501.45,836.00 502.00,836.00 C503.30,836.00 503.33,851.68 502.04,852.48 C501.50,852.81 499.37,850.50 497.29,847.36 L 493.50 841.64 ZM 592.00 846.94 C592.00,849.66 591.55,852.16 591.00,852.50 C590.36,852.89 590.00,850.01 590.00,844.56 C590.00,839.85 590.40,836.00 590.90,836.00 C591.39,836.00 593.24,838.25 595.00,841.00 C596.76,843.75 598.61,846.00 599.10,846.00 C599.60,846.00 600.00,843.75 600.00,841.00 C600.00,838.25 600.45,836.00 601.00,836.00 C602.21,836.00 602.37,851.65 601.17,852.39 C600.72,852.68 598.80,850.47 596.92,847.50 C595.04,844.53 593.16,842.07 592.75,842.05 C592.34,842.02 592.00,844.22 592.00,846.94 ZM 458.25 851.75 C455.64,853.75 451.30,853.27 449.56,850.78 C447.58,847.96 447.32,835.61 449.25,836.25 C450.02,836.50 450.69,839.31 451.00,843.58 C451.50,850.49 451.50,850.50 454.50,850.50 L 457.50 850.50 L 457.79 843.25 C457.96,839.26 458.52,836.00 459.04,836.00 C461.09,836.00 460.38,850.12 458.25,851.75 ZM 480.00 852.00 C480.00,852.55 477.98,853.00 475.50,853.00 L 471.00 853.00 L 471.00 836.00 L 475.50 836.00 C477.98,836.00 480.00,836.40 480.00,836.89 C480.00,837.99 477.52,839.00 474.85,839.00 C473.36,839.00 472.94,839.56 473.18,841.25 C473.43,842.98 474.26,843.57 476.77,843.81 C480.74,844.20 480.06,846.00 475.94,846.00 C473.47,846.00 473.00,846.40 473.00,848.50 C473.00,850.69 473.43,851.00 476.50,851.00 C478.42,851.00 480.00,851.45 480.00,852.00 ZM 436.56 851.58 C433.67,853.69 429.46,853.30 426.36,850.63 C418.54,843.91 428.34,831.65 436.79,837.57 C440.04,839.84 438.54,841.12 434.82,839.26 C430.27,836.99 426.62,839.09 426.19,844.22 C425.94,847.26 426.34,848.18 428.54,849.62 C430.76,851.08 431.71,851.17 434.28,850.20 C437.97,848.81 439.27,849.60 436.56,851.58 ZM 693.17 851.35 C690.69,853.59 686.70,853.43 684.50,851.00 C682.46,848.75 683.92,848.31 687.02,850.24 C688.46,851.14 689.47,851.19 690.69,850.42 C693.73,848.51 693.19,847.18 688.56,845.13 C685.01,843.56 684.00,842.59 684.00,840.76 C684.00,839.46 684.54,837.86 685.20,837.20 C686.89,835.51 691.51,835.71 693.02,837.52 C694.73,839.59 693.65,840.42 691.23,838.91 C688.97,837.50 685.64,838.40 686.24,840.25 C686.46,840.94 688.53,842.55 690.82,843.82 C695.37,846.36 696.10,848.69 693.17,851.35 ZM 235.14 851.03 C229.63,855.63 222.00,851.61 222.00,844.12 C222.00,841.02 222.58,839.69 224.63,838.07 C227.77,835.60 231.71,835.41 234.79,837.57 C238.03,839.83 236.51,841.20 232.99,839.19 C230.30,837.66 229.77,837.64 227.26,839.03 C223.46,841.14 222.83,847.07 226.17,849.40 C228.73,851.20 232.57,851.51 233.50,850.00 C233.84,849.45 234.88,849.01 235.81,849.03 C237.18,849.06 237.05,849.44 235.14,851.03 ZM 577.17 851.35 C574.56,853.71 570.42,853.43 568.56,850.78 C566.80,848.27 566.34,836.00 568.00,836.00 C568.55,836.00 569.00,838.50 569.00,841.57 C569.00,848.28 570.28,851.00 573.43,851.00 C576.37,851.00 577.00,849.39 577.00,841.92 C577.00,838.64 577.45,836.00 578.00,836.00 C578.57,836.00 579.00,838.95 579.00,842.85 C579.00,848.21 578.60,850.05 577.17,851.35 ZM 378.50 852.00 C377.55,853.54 368.00,853.27 368.00,851.70 C368.00,850.99 369.56,847.95 371.47,844.95 C373.39,841.95 374.96,839.16 374.97,838.75 C374.99,838.34 373.42,838.00 371.50,838.00 C369.58,838.00 368.00,837.55 368.00,837.00 C368.00,836.45 370.25,836.00 373.00,836.00 C376.02,836.00 378.00,836.44 378.00,837.12 C378.00,837.73 376.42,840.83 374.50,844.00 C372.58,847.17 371.00,850.04 371.00,850.38 C371.00,850.72 372.83,851.00 375.06,851.00 C377.51,851.00 378.87,851.40 378.50,852.00 ZM 710.00 845.46 C710.00,848.99 709.55,852.16 709.00,852.50 C708.37,852.89 708.00,850.53 708.00,846.13 C708.00,839.72 707.82,839.11 705.83,838.82 C704.63,838.64 703.47,837.94 703.24,837.25 C702.95,836.34 704.50,836.00 708.92,836.00 C715.12,836.00 717.02,837.28 712.50,838.41 C710.16,839.00 710.00,839.44 710.00,845.46 ZM 333.00 845.46 C333.00,848.99 332.55,852.16 332.00,852.50 C331.37,852.89 331.00,850.51 331.00,846.06 C331.00,839.74 330.80,839.00 329.06,839.00 C326.54,839.00 325.55,837.39 327.59,836.60 C330.02,835.67 338.00,835.89 338.00,836.89 C338.00,837.38 336.88,838.07 335.50,838.41 C333.16,839.00 333.00,839.44 333.00,845.46 ZM 519.00 845.51 C519.00,849.01 518.55,852.16 518.00,852.50 C517.37,852.89 517.00,850.34 517.00,845.56 C517.00,838.16 516.95,838.00 514.50,838.00 C513.12,838.00 512.00,837.55 512.00,837.00 C512.00,836.44 514.69,836.00 518.08,836.00 C522.50,836.00 524.05,836.34 523.76,837.25 C523.53,837.94 522.37,838.64 521.17,838.82 C519.20,839.11 519.00,839.74 519.00,845.51 ZM 752.52 844.19 C753.51,845.18 757.87,843.79 758.44,842.31 C759.30,840.05 758.19,839.00 754.94,839.00 C752.53,839.00 752.00,839.42 752.00,841.33 C752.00,842.62 752.24,843.90 752.52,844.19 ZM 673.00 844.50 C673.00,849.50 672.59,853.00 672.00,853.00 C671.41,853.00 671.00,849.50 671.00,844.50 C671.00,839.50 671.41,836.00 672.00,836.00 C672.59,836.00 673.00,839.50 673.00,844.50 ZM 296.01 845.75 C296.00,846.99 299.16,847.51 300.22,846.44 C300.91,845.76 298.83,840.00 297.90,840.00 C297.21,840.00 296.04,843.57 296.01,845.75 ZM 250.00 846.07 C250.00,847.30 253.71,847.27 254.49,846.02 C254.82,845.49 254.43,843.80 253.62,842.27 L 252.16 839.50 L 251.08 842.32 C250.49,843.86 250.00,845.55 250.00,846.07 ZM 349.00 846.61 C349.00,846.83 350.12,847.00 351.50,847.00 C354.26,847.00 354.73,845.22 352.88,841.77 C351.80,839.76 351.70,839.81 350.38,842.95 C349.62,844.75 349.00,846.40 349.00,846.61 ZM 392.55 844.75 C391.96,846.68 392.23,847.00 394.43,847.00 C397.29,847.00 397.48,846.40 395.93,842.32 C394.80,839.33 394.05,839.87 392.55,844.75 Z" fill="rgb(89,53,32)"/>
<path d="M 506.71 402.23 C509.73,405.56 506.28,404.00 501.68,399.95 C488.35,388.22 486.40,367.86 496.64,347.41 C501.01,338.70 505.15,333.10 521.09,314.41 C540.93,291.15 548.88,278.43 555.00,260.16 C561.73,240.06 562.65,215.21 557.64,189.00 C556.32,182.12 555.45,176.28 555.70,176.01 C556.48,175.16 590.29,210.13 595.82,217.50 C602.68,226.64 610.50,242.46 613.11,252.50 C616.02,263.70 616.02,280.53 613.11,291.50 C605.76,319.14 586.06,340.77 555.09,355.21 C527.93,367.88 525.67,369.16 519.24,375.58 C515.25,379.56 512.76,382.96 512.36,384.94 C511.44,389.56 509.74,389.94 510.55,385.35 C512.51,374.24 518.39,367.47 536.78,355.15 C552.93,344.33 561.47,336.83 568.94,326.91 C581.47,310.29 587.97,292.03 587.99,273.41 C588.00,266.77 586.16,251.21 585.14,249.32 C584.79,248.67 584.47,254.52 584.43,262.32 C584.35,278.44 582.51,287.14 576.50,299.82 C567.67,318.47 555.15,331.69 530.83,348.07 C513.80,359.55 507.50,365.35 503.62,373.14 C499.16,382.08 500.59,395.47 506.71,402.23 ZM 680.80 736.57 C675.69,738.91 672.90,739.50 666.00,739.71 C649.51,740.20 637.78,733.37 631.30,719.50 C628.81,714.16 628.50,712.40 628.53,703.50 C628.56,694.68 628.89,692.84 631.30,687.87 C634.51,681.25 642.15,673.75 648.78,670.68 C652.77,668.84 655.27,668.50 665.00,668.52 C675.09,668.53 677.04,668.82 680.89,670.86 C687.91,674.57 694.43,681.36 697.62,688.27 C700.14,693.71 700.49,695.64 700.46,703.50 C700.38,719.30 693.60,730.70 680.80,736.57 ZM 482.50 738.00 C482.14,738.58 476.68,739.00 469.50,739.00 C462.32,739.00 456.86,738.58 456.50,738.00 C456.14,737.42 457.13,737.00 458.86,737.00 C463.51,737.00 467.32,732.96 471.34,723.78 C483.33,696.39 501.17,652.08 501.15,649.74 C501.14,648.22 502.46,644.06 504.08,640.49 C508.33,631.11 509.50,631.61 515.18,645.26 C546.25,719.81 551.02,730.51 554.67,733.75 C557.01,735.82 559.38,737.00 561.23,737.00 C562.90,737.00 563.86,737.42 563.50,738.00 C563.12,738.61 555.51,739.00 544.00,739.00 C532.49,739.00 524.88,738.61 524.50,738.00 C524.13,737.40 525.32,737.00 527.44,737.00 C531.33,737.00 535.02,734.19 534.97,731.25 C534.96,730.29 532.75,724.10 530.07,717.50 L 525.20 705.50 L 481.81 705.50 L 477.40 716.46 C474.98,722.48 473.00,728.87 473.00,730.65 C473.00,734.44 475.93,737.00 480.28,737.00 C481.92,737.00 482.86,737.42 482.50,738.00 ZM 737.00 738.00 C737.00,738.62 731.50,739.00 722.50,739.00 C713.50,739.00 708.00,738.62 708.00,738.00 C708.00,737.45 708.90,737.00 710.00,737.00 C711.10,737.00 712.90,736.10 714.00,735.00 C715.90,733.10 716.00,731.67 716.00,705.43 C716.00,689.12 715.60,677.11 715.01,676.02 C714.46,675.00 712.63,673.86 710.94,673.49 C709.24,673.11 708.02,672.65 708.22,672.45 C708.42,672.25 711.94,671.60 716.04,671.02 C720.14,670.44 724.74,669.75 726.25,669.50 C728.95,669.06 729.00,669.14 729.00,674.23 L 729.00 679.41 L 732.75 675.76 C743.23,665.57 759.50,665.29 765.88,675.20 L 768.27 678.89 L 772.90 674.98 C778.63,670.15 784.51,668.00 791.98,668.00 C798.70,668.00 803.21,670.50 806.45,676.00 C808.34,679.23 808.54,681.57 809.00,706.83 C809.47,732.42 809.62,734.26 811.44,735.58 C812.51,736.36 814.20,737.00 815.19,737.00 C816.19,737.00 817.00,737.45 817.00,738.00 C817.00,738.62 811.69,739.00 803.06,739.00 C794.84,739.00 788.86,738.59 788.50,738.00 C788.15,737.44 788.97,737.00 790.38,737.00 C795.60,737.00 796.00,734.89 796.00,707.25 C796.00,680.36 795.42,676.36 791.15,674.08 C786.00,671.33 775.33,674.23 771.17,679.51 C769.07,682.18 769.00,683.12 769.00,707.63 C769.00,731.67 769.11,733.11 771.00,735.00 C772.10,736.10 773.93,737.00 775.06,737.00 C776.19,737.00 776.84,737.45 776.50,738.00 C776.14,738.59 770.16,739.00 761.94,739.00 C753.31,739.00 748.00,738.62 748.00,738.00 C748.00,737.45 748.90,737.00 750.00,737.00 C751.10,737.00 752.90,736.10 754.00,735.00 C755.90,733.10 756.00,731.67 756.00,706.95 C756.00,679.32 755.57,676.44 751.06,674.03 C745.88,671.26 734.90,674.52 731.01,679.99 C729.12,682.64 729.00,684.38 729.00,708.35 C729.00,733.61 729.02,733.90 731.22,735.44 C732.44,736.30 734.24,737.00 735.22,737.00 C736.20,737.00 737.00,737.45 737.00,738.00 ZM 855.50 738.13 C846.37,742.29 831.41,739.01 827.08,731.89 C821.31,722.41 824.92,710.14 834.98,705.01 C837.04,703.96 844.29,701.47 851.11,699.47 C857.92,697.48 864.34,695.09 865.36,694.17 C866.93,692.76 867.15,691.45 866.75,685.85 C865.95,674.54 861.56,670.00 851.42,670.00 C843.45,670.00 839.00,673.02 839.00,678.44 C839.00,680.25 839.90,682.87 841.00,684.27 C843.59,687.56 843.52,688.61 840.61,690.52 C835.67,693.76 830.00,689.75 830.00,683.03 C830.01,674.22 837.97,668.86 851.99,668.19 C862.27,667.70 867.86,669.06 872.56,673.19 C879.34,679.14 879.46,679.74 879.83,707.78 L 880.15 733.05 L 882.51 734.60 C884.30,735.77 885.35,735.88 886.87,735.07 C889.69,733.56 890.46,733.74 888.95,735.57 C883.64,741.96 870.88,740.96 867.97,733.93 C867.30,732.32 866.54,731.00 866.27,731.00 C866.01,731.00 864.37,732.19 862.64,733.65 C860.91,735.11 857.70,737.13 855.50,738.13 ZM 655.73 735.92 C660.23,738.30 668.88,738.64 672.80,736.59 C679.86,732.90 684.37,724.69 686.07,712.44 C688.56,694.52 682.80,676.57 672.90,671.45 C666.64,668.21 654.46,670.43 649.87,675.64 C639.97,686.89 639.48,716.70 648.97,729.80 C650.62,732.08 653.66,734.83 655.73,735.92 ZM 600.50 738.00 C600.13,738.60 593.68,739.00 584.50,739.00 C575.32,739.00 568.87,738.60 568.50,738.00 C568.15,737.43 568.99,737.00 570.44,737.00 C573.95,737.00 576.98,733.68 577.08,729.75 C577.43,715.18 576.68,677.25 576.02,676.06 C575.56,675.24 573.68,674.06 571.84,673.43 C568.63,672.34 568.86,672.25 577.50,671.07 C582.45,670.40 587.29,669.62 588.25,669.35 C589.71,668.95 590.00,669.54 590.00,672.85 C590.00,680.03 590.83,680.56 594.82,675.90 C601.55,668.03 612.87,665.50 618.85,670.53 C624.25,675.07 623.87,682.46 618.09,685.45 C613.57,687.79 612.90,687.47 613.58,683.25 C614.47,677.67 611.31,673.99 605.68,674.04 C600.24,674.08 597.43,675.73 593.94,680.92 C590.18,686.52 589.78,689.96 590.17,713.36 C590.49,732.80 590.55,733.22 592.86,735.09 C594.16,736.14 596.55,737.00 598.17,737.00 C599.88,737.00 600.86,737.42 600.50,738.00 ZM 484.00 701.47 C484.00,702.79 486.65,703.00 503.44,703.00 C514.13,703.00 523.06,702.66 523.29,702.25 C523.69,701.49 504.96,656.63 503.72,655.38 C502.99,654.65 502.28,656.19 491.40,682.22 C487.33,691.96 484.00,700.63 484.00,701.47 ZM 844.30 733.04 C848.44,735.56 853.29,735.52 858.68,732.91 C866.26,729.25 867.00,727.29 867.00,711.10 C867.00,703.34 866.66,697.00 866.25,697.00 C865.84,697.01 861.90,698.40 857.50,700.10 C843.52,705.51 838.00,711.31 838.00,720.58 C838.00,726.24 840.16,730.52 844.30,733.04 ZM 467.81 789.75 C467.49,791.40 461.29,791.51 356.86,791.75 C265.14,791.97 246.06,791.78 245.13,790.66 C244.52,789.92 244.31,789.02 244.68,788.66 C245.04,788.30 295.47,788.00 356.74,788.00 C462.30,788.00 468.13,788.09 467.81,789.75 ZM 779.81 789.75 C779.49,791.40 773.32,791.51 669.36,791.75 C578.06,791.97 559.06,791.78 558.13,790.66 C557.52,789.92 557.31,789.02 557.68,788.66 C558.04,788.30 608.24,788.00 669.24,788.00 C774.33,788.00 780.13,788.09 779.81,789.75 ZM 494.53 416.84 C498.53,416.82 500.90,416.65 500.69,416.31 C500.35,415.75 492.43,415.03 482.79,414.68 C473.04,414.32 462.38,413.41 451.87,412.16 C463.37,413.47 475.21,414.38 486.22,414.70 C499.68,415.09 506.72,415.65 506.32,416.30 C506.04,416.74 501.38,416.90 494.53,416.84 ZM 399.60 391.13 C408.45,388.17 422.85,385.54 439.93,383.90 C426.83,385.29 414.04,387.31 405.17,389.55 C403.10,390.08 401.24,390.60 399.60,391.13 ZM 404.50 403.67 C395.23,401.18 389.60,398.70 390.25,396.75 C390.35,396.46 390.51,396.16 390.74,395.87 C390.03,397.13 390.76,398.34 392.97,399.48 C395.68,400.89 399.63,402.30 404.50,403.67 ZM 458.25 415.46 C453.49,415.16 449.02,414.82 445.22,414.46 C435.54,413.53 426.32,412.36 417.79,411.01 C407.25,409.34 397.73,407.37 389.67,405.20 C397.72,407.36 407.23,409.33 417.79,411.01 C426.34,412.36 435.56,413.52 445.22,414.44 C449.15,414.81 453.61,415.15 458.25,415.46 Z" fill="rgb(114,112,60)"/>
<path d="M 450.62 363.16 C462.02,361.60 459.72,361.12 444.00,361.53 C437.59,361.69 431.35,362.01 425.31,362.46 C431.01,361.92 437.34,361.32 441.29,360.94 C453.43,359.77 473.06,359.75 471.00,360.90 C470.17,361.36 465.01,362.04 459.53,362.40 C456.76,362.59 453.77,362.84 450.62,363.16 ZM 494.53 416.84 C485.86,416.77 473.67,416.34 462.45,415.71 C473.25,416.28 483.06,416.50 485.58,416.07 C488.54,415.56 486.57,415.21 477.50,414.66 C466.72,414.00 455.20,412.77 444.18,411.21 C446.72,411.55 449.28,411.86 451.87,412.16 L 451.87 412.16 C462.38,413.41 473.04,414.32 482.79,414.68 C492.43,415.03 500.35,415.75 500.69,416.31 C500.90,416.65 498.53,416.82 494.53,416.84 ZM 583.95 363.21 C580.98,362.95 577.99,362.74 575.00,362.57 C565.79,362.05 565.63,362.60 575.07,364.43 C572.11,363.97 569.51,363.62 567.50,363.42 C563.65,363.04 559.83,362.36 559.00,361.90 C556.90,360.72 565.18,360.77 574.21,361.98 C576.32,362.26 579.93,362.72 583.95,363.21 ZM 586.46 255.81 C585.79,252.94 585.14,255.78 584.74,264.53 C584.59,267.73 584.32,270.84 583.94,273.87 C584.26,270.40 584.41,266.63 584.43,262.32 C584.47,254.52 584.79,248.67 585.14,249.32 C585.51,250.01 586.00,252.55 586.46,255.81 ZM 372.00 531.00 C370.04,532.26 368.00,532.26 368.00,531.00 C368.00,530.45 369.24,530.01 370.75,530.02 C372.89,530.03 373.17,530.24 372.00,531.00 ZM 640.50 531.00 C641.29,532.27 638.97,532.27 637.00,531.00 C635.78,530.21 635.91,530.03 637.69,530.02 C638.90,530.01 640.16,530.45 640.50,531.00 ZM 579.53 292.84 C576.62,301.07 572.46,308.70 566.86,316.01 C570.60,310.97 573.73,305.66 576.50,299.82 C577.66,297.37 578.66,295.07 579.53,292.84 ZM 584.85 295.61 C587.39,286.46 588.30,276.96 587.64,266.92 C587.59,266.08 587.53,265.28 587.47,264.53 C587.79,267.92 588.00,271.17 587.99,273.41 C587.98,280.90 586.93,288.32 584.85,295.61 ZM 429.77 365.74 C419.89,367.18 409.97,368.89 401.64,370.63 C409.96,368.78 419.36,367.15 429.77,365.74 ZM 638.25 374.19 C631.13,371.42 621.62,368.90 610.91,366.89 C621.88,368.86 631.18,371.36 638.25,374.19 ZM 389.67 405.20 C389.22,405.08 388.78,404.96 388.35,404.84 C388.20,404.80 388.06,404.76 387.92,404.72 C380.88,402.75 375.03,400.62 370.69,398.41 C370.63,398.37 370.56,398.34 370.49,398.30 C369.60,397.85 368.78,397.38 368.02,396.92 C375.22,401.35 389.34,405.68 407.08,409.14 C400.74,407.93 394.90,406.61 389.68,405.20 ZM 625.22 376.71 C631.92,379.34 636.71,382.05 638.98,384.62 C636.87,382.23 631.85,379.39 625.22,376.71 ZM 352.25 382.36 C356.44,377.58 365.34,373.34 377.98,369.92 C365.50,373.34 356.42,377.60 352.25,382.36 ZM 653.64 388.59 C653.27,385.82 652.56,383.90 651.29,382.26 C651.82,382.88 652.24,383.50 652.57,384.13 C653.04,385.05 653.40,386.55 653.64,388.59 ZM 372.25 380.07 C368.66,381.82 365.99,383.45 364.22,385.02 C365.99,383.45 368.66,381.82 372.25,380.06 C373.71,379.35 375.27,378.65 376.93,377.97 C375.21,378.69 373.60,379.41 372.25,380.07 Z" fill="rgb(181,167,144)"/>
<path d="M 0.00 512.00 L 0.00 0.00 L 512.00 0.00 L 1024.00 0.00 L 1024.00 512.00 L 1024.00 1024.00 L 512.00 1024.00 L 0.00 1024.00 L 0.00 512.00 ZM 235.14 851.03 C237.05,849.44 237.18,849.06 235.81,849.03 C234.88,849.01 233.84,849.45 233.50,850.00 C232.57,851.51 228.73,851.20 226.17,849.40 C222.83,847.07 223.46,841.14 227.26,839.03 C229.77,837.64 230.30,837.66 232.99,839.19 C236.51,841.20 238.03,839.83 234.79,837.57 C231.71,835.41 227.77,835.60 224.63,838.07 C222.58,839.69 222.00,841.02 222.00,844.12 C222.00,851.61 229.63,855.63 235.14,851.03 ZM 253.01 849.00 C256.04,849.00 256.90,849.44 257.45,851.25 C257.88,852.66 258.33,853.02 258.66,852.22 C259.42,850.38 253.96,836.00 252.51,836.00 C251.83,836.00 249.92,839.58 248.26,843.95 C245.31,851.72 245.11,855.22 247.87,851.08 C248.85,849.59 250.31,849.00 253.01,849.00 ZM 293.71 851.00 C294.40,848.36 300.68,848.18 302.56,850.75 C305.05,854.16 304.92,851.27 302.23,843.67 C300.51,838.83 299.01,836.06 298.19,836.23 C297.01,836.47 291.00,849.72 291.00,852.07 C291.00,853.85 293.19,852.99 293.71,851.00 ZM 333.00 845.46 C333.00,839.44 333.16,839.00 335.50,838.41 C336.88,838.07 338.00,837.38 338.00,836.89 C338.00,835.89 330.02,835.67 327.59,836.60 C325.55,837.39 326.54,839.00 329.06,839.00 C330.80,839.00 331.00,839.74 331.00,846.06 C331.00,850.51 331.37,852.89 332.00,852.50 C332.55,852.16 333.00,848.99 333.00,845.46 ZM 347.50 851.00 C348.44,848.04 355.54,848.12 356.32,851.10 C356.62,852.26 357.33,852.92 357.89,852.57 C359.35,851.67 353.67,836.58 351.72,836.20 C350.62,835.98 349.48,838.06 347.60,843.70 C346.17,847.99 345.00,851.84 345.00,852.25 C345.00,853.85 346.90,852.90 347.50,851.00 ZM 378.50 852.00 C378.87,851.40 377.51,851.00 375.06,851.00 C372.83,851.00 371.00,850.72 371.00,850.38 C371.00,850.04 372.58,847.17 374.50,844.00 C376.42,840.83 378.00,837.73 378.00,837.12 C378.00,836.44 376.02,836.00 373.00,836.00 C370.25,836.00 368.00,836.45 368.00,837.00 C368.00,837.55 369.58,838.00 371.50,838.00 C373.42,838.00 374.99,838.34 374.97,838.75 C374.96,839.16 373.39,841.95 371.47,844.95 C369.56,847.95 368.00,850.99 368.00,851.70 C368.00,853.27 377.55,853.54 378.50,852.00 ZM 395.01 849.00 C397.99,849.00 398.88,849.44 399.32,851.10 C399.62,852.26 400.30,852.93 400.83,852.60 C401.97,851.90 396.19,836.00 394.81,836.00 C393.64,836.00 389.04,846.33 388.40,850.41 L 387.90 853.50 L 389.57 851.25 C390.79,849.61 392.27,849.00 395.01,849.00 ZM 436.56 851.58 C439.27,849.60 437.97,848.81 434.28,850.20 C431.71,851.17 430.76,851.08 428.54,849.62 C426.34,848.18 425.94,847.26 426.19,844.22 C426.62,839.09 430.27,836.99 434.82,839.26 C438.54,841.12 440.04,839.84 436.79,837.57 C428.34,831.65 418.54,843.91 426.36,850.63 C429.46,853.30 433.67,853.69 436.56,851.58 ZM 458.25 851.75 C460.38,850.12 461.09,836.00 459.04,836.00 C458.52,836.00 457.96,839.26 457.79,843.25 L 457.50 850.50 L 454.50 850.50 C451.50,850.50 451.50,850.49 451.00,843.58 C450.69,839.31 450.02,836.50 449.25,836.25 C447.32,835.61 447.58,847.96 449.56,850.78 C451.30,853.27 455.64,853.75 458.25,851.75 ZM 480.00 852.00 C480.00,851.45 478.42,851.00 476.50,851.00 C473.43,851.00 473.00,850.69 473.00,848.50 C473.00,846.40 473.47,846.00 475.94,846.00 C480.06,846.00 480.74,844.20 476.77,843.81 C474.26,843.57 473.43,842.98 473.18,841.25 C472.94,839.56 473.36,839.00 474.85,839.00 C477.52,839.00 480.00,837.99 480.00,836.89 C480.00,836.40 477.98,836.00 475.50,836.00 L 471.00 836.00 L 471.00 844.50 L 471.00 853.00 L 475.50 853.00 C477.98,853.00 480.00,852.55 480.00,852.00 ZM 493.19 846.57 L 493.50 841.64 L 497.29 847.36 C499.37,850.50 501.50,852.81 502.04,852.48 C503.33,851.68 503.30,836.00 502.00,836.00 C501.45,836.00 501.00,838.47 501.00,841.50 C501.00,844.53 500.66,846.98 500.25,846.95 C499.84,846.92 498.13,844.81 496.46,842.27 C491.96,835.43 491.21,835.73 490.83,844.53 C490.65,848.74 490.70,852.37 490.93,852.60 C491.97,853.63 492.90,851.14 493.19,846.57 ZM 519.00 845.51 C519.00,839.74 519.20,839.11 521.17,838.82 C522.37,838.64 523.53,837.94 523.76,837.25 C524.05,836.34 522.50,836.00 518.08,836.00 C514.69,836.00 512.00,836.44 512.00,837.00 C512.00,837.55 513.12,838.00 514.50,838.00 C516.95,838.00 517.00,838.16 517.00,845.56 C517.00,850.34 517.37,852.89 518.00,852.50 C518.55,852.16 519.00,849.01 519.00,845.51 ZM 577.17 851.35 C578.60,850.05 579.00,848.21 579.00,842.85 C579.00,838.95 578.57,836.00 578.00,836.00 C577.45,836.00 577.00,838.64 577.00,841.92 C577.00,849.39 576.37,851.00 573.43,851.00 C570.28,851.00 569.00,848.28 569.00,841.57 C569.00,838.50 568.55,836.00 568.00,836.00 C566.34,836.00 566.80,848.27 568.56,850.78 C570.42,853.43 574.56,853.71 577.17,851.35 ZM 592.00 846.94 C592.00,844.22 592.34,842.02 592.75,842.05 C593.16,842.07 595.04,844.53 596.92,847.50 C598.80,850.47 600.72,852.68 601.17,852.39 C602.37,851.65 602.21,836.00 601.00,836.00 C600.45,836.00 600.00,838.25 600.00,841.00 C600.00,843.75 599.60,846.00 599.10,846.00 C598.61,846.00 596.76,843.75 595.00,841.00 C593.24,838.25 591.39,836.00 590.90,836.00 C590.40,836.00 590.00,839.85 590.00,844.56 C590.00,850.01 590.36,852.89 591.00,852.50 C591.55,852.16 592.00,849.66 592.00,846.94 ZM 651.00 848.94 C651.00,846.71 651.46,846.00 652.92,846.00 C653.97,846.00 655.55,845.73 656.42,845.39 C657.68,844.91 658.00,845.51 658.00,848.33 C658.00,850.29 658.41,852.14 658.92,852.45 C659.81,853.00 660.83,840.89 660.18,837.61 C659.57,834.61 658.00,835.98 658.00,839.50 C658.00,842.81 657.82,843.00 654.61,843.00 C651.53,843.00 651.16,842.69 650.56,839.47 C650.20,837.53 649.47,836.21 648.95,836.53 C647.90,837.18 647.62,851.29 648.64,852.31 C649.85,853.52 651.00,851.88 651.00,848.94 ZM 673.00 844.50 C673.00,839.50 672.59,836.00 672.00,836.00 C671.41,836.00 671.00,839.50 671.00,844.50 C671.00,849.50 671.41,853.00 672.00,853.00 C672.59,853.00 673.00,849.50 673.00,844.50 ZM 693.17 851.35 C696.10,848.69 695.37,846.36 690.82,843.82 C688.53,842.55 686.46,840.94 686.24,840.25 C685.64,838.40 688.97,837.50 691.23,838.91 C693.65,840.42 694.73,839.59 693.02,837.52 C691.51,835.71 686.89,835.51 685.20,837.20 C684.54,837.86 684.00,839.46 684.00,840.76 C684.00,842.59 685.01,843.56 688.56,845.13 C693.19,847.18 693.73,848.51 690.69,850.42 C689.47,851.19 688.46,851.14 687.02,850.24 C683.92,848.31 682.46,848.75 684.50,851.00 C686.70,853.43 690.69,853.59 693.17,851.35 ZM 710.00 845.46 C710.00,839.44 710.16,839.00 712.50,838.41 C717.02,837.28 715.12,836.00 708.92,836.00 C704.50,836.00 702.95,836.34 703.24,837.25 C703.47,837.94 704.63,838.64 705.83,838.82 C707.82,839.11 708.00,839.72 708.00,846.13 C708.00,850.53 708.37,852.89 709.00,852.50 C709.55,852.16 710.00,848.99 710.00,845.46 ZM 752.00 849.44 C752.00,845.84 755.54,846.22 757.52,850.03 C758.38,851.70 759.54,852.78 760.10,852.44 C760.74,852.05 760.52,850.92 759.52,849.38 C758.08,847.19 758.07,846.74 759.46,844.75 C762.83,839.95 759.76,835.66 753.35,836.18 L 749.50 836.50 L 749.17 843.31 C748.98,847.06 749.09,850.80 749.41,851.63 C750.24,853.79 752.00,852.31 752.00,849.44 ZM 516.69 806.91 C527.35,801.75 535.41,784.17 531.74,774.08 C529.99,769.23 528.77,769.34 526.64,774.53 C524.83,778.93 522.94,780.84 511.10,790.22 C507.94,792.73 504.45,796.73 502.67,799.90 L 499.64 805.29 L 501.93 807.15 C505.00,809.63 511.28,809.53 516.69,806.91 ZM 500.41 798.25 C503.52,792.23 506.25,789.38 515.34,782.65 C522.80,777.13 526.00,772.63 526.00,767.64 C526.00,762.50 515.40,762.12 507.54,766.98 C497.70,773.06 491.37,789.78 495.33,799.25 C496.19,801.31 497.14,803.00 497.43,803.00 C497.73,803.00 499.07,800.86 500.41,798.25 ZM 467.81 789.75 C468.13,788.09 462.30,788.00 356.74,788.00 C295.47,788.00 245.04,788.30 244.68,788.66 C244.31,789.02 244.52,789.92 245.13,790.66 C246.06,791.78 265.14,791.97 356.86,791.75 C461.29,791.51 467.49,791.40 467.81,789.75 ZM 779.81 789.75 C780.13,788.09 774.33,788.00 669.24,788.00 C608.24,788.00 558.04,788.30 557.68,788.66 C557.31,789.02 557.52,789.92 558.13,790.66 C559.06,791.78 578.06,791.97 669.36,791.75 C773.32,791.51 779.49,791.40 779.81,789.75 ZM 216.41 736.19 C223.91,732.68 229.71,727.69 233.93,721.11 C237.22,715.99 237.56,715.00 236.03,715.00 C235.49,715.00 234.34,716.37 233.47,718.05 C231.20,722.45 224.32,728.80 218.82,731.59 C195.36,743.48 168.81,729.10 161.52,700.54 C159.74,693.55 159.53,678.35 161.11,670.80 C164.06,656.76 172.96,644.20 183.31,639.46 C201.90,630.95 224.92,639.97 224.98,655.80 C225.00,659.21 222.85,665.94 221.72,666.02 C221.60,666.02 219.76,666.63 217.64,667.37 L 213.78 668.72 L 216.12 670.90 C224.60,678.80 236.80,669.64 234.51,657.09 C232.20,644.44 219.33,635.55 201.54,634.31 C178.48,632.70 159.10,642.97 149.75,661.74 C144.95,671.37 143.66,678.18 144.22,690.98 C144.60,699.88 145.14,702.63 147.77,708.82 C153.55,722.48 163.31,732.04 176.50,736.95 C188.84,741.55 205.64,741.23 216.41,736.19 ZM 276.57 738.11 C278.80,737.09 282.24,734.85 284.21,733.12 L 287.79 729.97 L 288.84 732.96 C290.06,736.46 295.30,739.99 299.28,740.00 C302.77,740.00 308.07,737.83 309.87,735.65 C311.48,733.71 310.74,733.52 308.08,735.18 C306.57,736.12 305.68,736.02 303.60,734.66 L 301.00 732.95 L 300.98 708.73 C300.96,687.46 300.73,684.01 299.14,680.49 C295.00,671.39 286.18,667.37 272.15,668.21 C259.86,668.95 251.00,674.99 251.00,682.64 C251.00,687.28 252.30,689.47 255.96,690.98 C258.53,692.05 259.37,691.99 261.49,690.60 C264.13,688.87 264.75,686.58 262.90,685.44 C261.08,684.31 259.06,678.47 259.68,676.11 C260.53,672.87 266.93,670.00 273.31,670.00 C283.27,670.00 287.82,675.32 287.94,687.10 C288.02,694.48 286.72,695.55 273.27,699.17 C254.60,704.20 248.56,708.32 246.05,717.75 C243.86,726.01 248.05,734.19 256.50,738.10 C261.78,740.55 271.19,740.55 276.57,738.11 ZM 410.50 736.77 C415.60,734.13 419.36,730.67 422.51,725.72 C425.13,721.58 423.69,721.41 420.58,725.49 C417.63,729.35 410.46,733.45 404.78,734.51 C395.62,736.23 383.34,728.87 379.16,719.16 C377.21,714.62 375.02,704.14 375.01,699.25 L 375.00 697.00 L 399.50 697.00 L 424.00 697.00 L 424.00 693.18 C424.00,682.44 416.54,672.38 406.41,669.43 C398.88,667.24 388.36,667.89 381.23,670.98 C373.72,674.23 366.79,682.10 363.97,690.59 C360.82,700.06 361.41,713.22 365.34,721.26 C368.72,728.17 376.24,735.16 383.30,737.96 C390.82,740.93 403.52,740.38 410.50,736.77 ZM 680.80 736.57 C693.60,730.70 700.38,719.30 700.46,703.50 C700.49,695.64 700.14,693.71 697.62,688.27 C694.43,681.36 687.91,674.57 680.89,670.86 C677.04,668.82 675.09,668.53 665.00,668.52 C655.27,668.50 652.77,668.84 648.78,670.68 C642.15,673.75 634.51,681.25 631.30,687.87 C628.89,692.84 628.56,694.68 628.53,703.50 C628.50,712.40 628.81,714.16 631.30,719.50 C637.78,733.37 649.51,740.20 666.00,739.71 C672.90,739.50 675.69,738.91 680.80,736.57 ZM 855.50 738.13 C857.70,737.13 860.91,735.11 862.64,733.65 C864.37,732.19 866.01,731.00 866.27,731.00 C866.54,731.00 867.30,732.32 867.97,733.93 C870.88,740.96 883.64,741.96 888.95,735.57 C890.46,733.74 889.69,733.56 886.87,735.07 C885.35,735.88 884.30,735.77 882.51,734.60 L 880.15 733.05 L 879.83 707.78 C879.46,679.74 879.34,679.14 872.56,673.19 C867.86,669.06 862.27,667.70 851.99,668.19 C837.97,668.86 830.01,674.22 830.00,683.03 C830.00,689.75 835.67,693.76 840.61,690.52 C843.52,688.61 843.59,687.56 841.00,684.27 C839.90,682.87 839.00,680.25 839.00,678.44 C839.00,673.02 843.45,670.00 851.42,670.00 C861.56,670.00 865.95,674.54 866.75,685.85 C867.15,691.45 866.93,692.76 865.36,694.17 C864.34,695.09 857.92,697.48 851.11,699.47 C844.29,701.47 837.04,703.96 834.98,705.01 C824.92,710.14 821.31,722.41 827.08,731.89 C831.41,739.01 846.37,742.29 855.50,738.13 ZM 348.50 738.00 C348.86,737.42 347.88,737.00 346.17,737.00 C344.55,737.00 342.16,736.14 340.86,735.09 L 338.50 733.18 L 338.20 702.72 L 337.89 672.26 L 340.20 671.64 C341.46,671.30 345.76,671.02 349.75,671.01 C360.31,670.99 358.64,669.13 347.75,668.79 L 338.50 668.50 L 338.19 663.00 C337.75,655.23 339.67,642.25 341.80,638.60 C344.63,633.76 349.50,631.00 355.22,631.00 C359.37,631.00 360.63,631.48 363.15,634.00 C365.63,636.48 366.10,637.68 365.87,640.96 C365.48,646.27 366.25,646.69 369.43,642.90 C373.20,638.43 372.67,634.28 368.00,631.56 C362.74,628.50 347.39,628.71 340.72,631.94 C331.19,636.54 326.69,645.00 325.39,660.75 L 324.71 669.00 L 320.36 669.00 C317.96,669.00 316.00,669.45 316.00,670.00 C316.00,670.55 318.02,671.00 320.50,671.00 C324.49,671.00 325.00,671.25 325.03,673.25 C325.12,681.19 325.18,726.18 325.10,729.25 C324.98,733.67 322.15,737.00 318.50,737.00 C317.12,737.00 316.00,737.45 316.00,738.00 C316.00,738.62 321.98,739.00 331.94,739.00 C341.49,739.00 348.13,738.60 348.50,738.00 ZM 482.50 738.00 C482.86,737.42 481.92,737.00 480.28,737.00 C475.93,737.00 473.00,734.44 473.00,730.65 C473.00,728.87 474.98,722.48 477.40,716.46 L 481.81 705.50 L 503.50 705.50 L 525.20 705.50 L 530.07 717.50 C532.75,724.10 534.96,730.29 534.97,731.25 C535.02,734.19 531.33,737.00 527.44,737.00 C525.32,737.00 524.13,737.40 524.50,738.00 C524.88,738.61 532.49,739.00 544.00,739.00 C555.51,739.00 563.12,738.61 563.50,738.00 C563.86,737.42 562.90,737.00 561.23,737.00 C559.38,737.00 557.01,735.82 554.67,733.75 C551.02,730.51 546.25,719.81 515.18,645.26 C509.50,631.61 508.33,631.11 504.08,640.49 C502.46,644.06 501.14,648.22 501.15,649.74 C501.17,652.08 483.33,696.39 471.34,723.78 C467.32,732.96 463.51,737.00 458.86,737.00 C457.13,737.00 456.14,737.42 456.50,738.00 C456.86,738.58 462.32,739.00 469.50,739.00 C476.68,739.00 482.14,738.58 482.50,738.00 ZM 600.50 738.00 C600.86,737.42 599.88,737.00 598.17,737.00 C596.55,737.00 594.16,736.14 592.86,735.09 C590.55,733.22 590.49,732.80 590.17,713.36 C589.78,689.96 590.18,686.52 593.94,680.92 C597.43,675.73 600.24,674.08 605.68,674.04 C611.31,673.99 614.47,677.67 613.58,683.25 C612.90,687.47 613.57,687.79 618.09,685.45 C623.87,682.46 624.25,675.07 618.85,670.53 C612.87,665.50 601.55,668.03 594.82,675.90 C590.83,680.56 590.00,680.03 590.00,672.85 C590.00,669.54 589.71,668.95 588.25,669.35 C587.29,669.62 582.45,670.40 577.50,671.07 C568.86,672.25 568.63,672.34 571.84,673.43 C573.68,674.06 575.56,675.24 576.02,676.06 C576.68,677.25 577.43,715.18 577.08,729.75 C576.98,733.68 573.95,737.00 570.44,737.00 C568.99,737.00 568.15,737.43 568.50,738.00 C568.87,738.60 575.32,739.00 584.50,739.00 C593.68,739.00 600.13,738.60 600.50,738.00 ZM 737.00 738.00 C737.00,737.45 736.20,737.00 735.22,737.00 C734.24,737.00 732.44,736.30 731.22,735.44 C729.02,733.90 729.00,733.61 729.00,708.35 C729.00,684.38 729.12,682.64 731.01,679.99 C734.90,674.52 745.88,671.26 751.06,674.03 C755.57,676.44 756.00,679.32 756.00,706.95 C756.00,731.67 755.90,733.10 754.00,735.00 C752.90,736.10 751.10,737.00 750.00,737.00 C748.90,737.00 748.00,737.45 748.00,738.00 C748.00,738.62 753.31,739.00 761.94,739.00 C770.16,739.00 776.14,738.59 776.50,738.00 C776.84,737.45 776.19,737.00 775.06,737.00 C773.93,737.00 772.10,736.10 771.00,735.00 C769.11,733.11 769.00,731.67 769.00,707.63 C769.00,683.12 769.07,682.18 771.17,679.51 C775.33,674.23 786.00,671.33 791.15,674.08 C795.42,676.36 796.00,680.36 796.00,707.25 C796.00,734.89 795.60,737.00 790.38,737.00 C788.97,737.00 788.15,737.44 788.50,738.00 C788.86,738.59 794.84,739.00 803.06,739.00 C811.69,739.00 817.00,738.62 817.00,738.00 C817.00,737.45 816.19,737.00 815.19,737.00 C814.20,737.00 812.51,736.36 811.44,735.58 C809.62,734.26 809.47,732.42 809.00,706.83 C808.54,681.57 808.34,679.23 806.45,676.00 C803.21,670.50 798.70,668.00 791.98,668.00 C784.51,668.00 778.63,670.15 772.90,674.98 L 768.27 678.89 L 765.88 675.20 C759.50,665.29 743.23,665.57 732.75,675.76 L 729.00 679.41 L 729.00 674.23 C729.00,669.14 728.95,669.06 726.25,669.50 C724.74,669.75 720.14,670.44 716.04,671.02 C711.94,671.60 708.42,672.25 708.22,672.45 C708.02,672.65 709.24,673.11 710.94,673.49 C712.63,673.86 714.46,675.00 715.01,676.02 C715.60,677.11 716.00,689.12 716.00,705.43 C716.00,731.67 715.90,733.10 714.00,735.00 C712.90,736.10 711.10,737.00 710.00,737.00 C708.90,737.00 708.00,737.45 708.00,738.00 C708.00,738.62 713.50,739.00 722.50,739.00 C731.50,739.00 737.00,738.62 737.00,738.00 ZM 406.41 651.10 C411.46,647.74 412.84,645.56 411.39,643.25 C410.24,641.40 405.22,640.45 403.46,641.74 C402.14,642.71 389.00,659.85 389.00,660.60 C389.00,661.28 400.81,654.83 406.41,651.10 ZM 555.63 597.52 C594.38,593.92 624.74,588.07 648.28,579.65 C681.83,567.66 690.02,551.20 667.99,540.01 C662.21,537.08 645.24,531.42 644.48,532.18 C644.24,532.43 647.75,534.13 652.27,535.98 C662.43,540.12 667.70,543.51 669.57,547.13 C671.63,551.11 671.38,552.50 667.90,556.46 C657.90,567.85 613.78,578.18 556.79,582.47 C533.23,584.24 477.62,584.52 456.50,582.96 C400.46,578.84 357.07,569.54 342.65,558.57 C337.64,554.76 336.62,550.02 339.91,545.84 C342.06,543.11 352.94,537.07 359.50,534.96 C361.70,534.25 362.93,533.48 362.23,533.25 C358.91,532.13 338.61,540.23 333.47,544.72 C321.07,555.56 330.16,567.99 358.44,578.87 C382.33,588.06 420.58,595.19 461.00,597.98 C469.52,598.57 478.75,599.22 481.50,599.42 C491.91,600.20 540.16,598.96 555.63,597.52 ZM 551.50 568.03 C572.76,566.16 600.46,562.81 602.00,561.92 C602.92,561.39 599.44,561.02 593.00,560.94 C587.22,560.88 580.30,560.53 577.61,560.16 L 572.72 559.50 L 578.61 554.84 C586.11,548.90 595.97,539.38 603.56,530.75 L 609.50 524.00 L 621.50 521.01 C665.65,510.02 697.97,485.87 708.33,456.12 C713.84,440.30 712.20,424.49 703.97,414.08 C696.52,404.66 688.28,401.00 674.50,401.00 C667.29,401.00 661.59,402.06 655.75,404.49 C654.16,405.15 654.00,404.39 654.00,396.06 C654.00,390.07 653.50,385.94 652.57,384.13 C648.22,375.73 626.12,368.21 595.00,364.54 C587.58,363.67 578.22,362.52 574.21,361.98 C565.18,360.77 556.90,360.72 559.00,361.90 C559.83,362.36 563.65,363.04 567.50,363.42 C576.65,364.31 598.10,368.45 609.68,371.56 C623.55,375.28 635.42,380.58 638.98,384.62 C642.72,388.89 642.77,390.90 639.25,394.20 C627.84,404.89 586.85,412.94 530.37,415.58 C518.37,416.14 515.44,415.98 510.87,414.48 C493.79,408.88 481.31,397.94 477.89,385.55 C476.91,382.01 476.89,382.00 471.20,382.02 C468.07,382.02 458.75,382.49 450.50,383.04 C417.87,385.24 392.13,391.10 390.25,396.75 C388.47,402.09 437.94,412.24 477.50,414.66 C486.57,415.21 488.54,415.56 485.58,416.07 C481.20,416.82 454.82,415.61 439.50,413.96 C407.19,410.48 379.22,403.81 368.02,396.92 C358.35,390.97 359.52,386.28 372.25,380.07 C376.79,377.85 384.33,374.96 389.00,373.63 C404.72,369.19 438.52,363.81 459.53,362.40 C465.01,362.04 470.17,361.36 471.00,360.90 C473.06,359.75 453.43,359.77 441.29,360.94 C435.91,361.46 426.10,362.39 419.50,363.01 C384.74,366.28 360.13,373.36 352.25,382.36 C349.32,385.71 349.00,386.68 349.03,392.28 C349.09,401.90 350.73,418.07 353.07,431.91 C360.88,478.24 383.52,517.94 416.13,542.50 C436.49,557.84 457.01,566.31 480.14,568.93 C490.16,570.07 534.68,569.50 551.50,568.03 ZM 372.00 531.00 C373.17,530.24 372.89,530.03 370.75,530.02 C369.24,530.01 368.00,530.45 368.00,531.00 C368.00,532.26 370.04,532.26 372.00,531.00 ZM 640.50 531.00 C640.16,530.45 638.90,530.01 637.69,530.02 C635.91,530.03 635.78,530.21 637.00,531.00 C638.97,532.27 641.29,532.27 640.50,531.00 ZM 506.71 402.23 C500.59,395.47 499.16,382.08 503.62,373.14 C507.50,365.35 513.80,359.55 530.83,348.07 C567.86,323.13 583.11,299.49 584.74,264.53 C585.38,250.60 586.64,251.64 587.64,266.92 C589.08,288.83 583.04,308.21 568.94,326.92 C561.47,336.83 552.93,344.33 536.78,355.15 C518.39,367.47 512.51,374.24 510.55,385.35 C509.74,389.94 511.44,389.56 512.36,384.94 C512.76,382.96 515.25,379.56 519.24,375.58 C525.67,369.16 527.93,367.88 555.09,355.21 C586.06,340.77 605.76,319.14 613.11,291.50 C616.02,280.53 616.02,263.70 613.11,252.50 C610.50,242.46 602.68,226.64 595.82,217.50 C590.29,210.13 556.48,175.16 555.70,176.01 C555.45,176.28 556.32,182.12 557.64,189.00 C562.65,215.21 561.73,240.06 555.00,260.16 C548.88,278.43 540.93,291.15 521.09,314.41 C505.15,333.10 501.01,338.70 496.64,347.41 C486.40,367.86 488.35,388.22 501.68,399.95 C506.28,404.00 509.73,405.56 506.71,402.23 ZM 480.01 347.25 C480.02,342.15 482.11,336.57 490.60,318.96 C500.89,297.62 503.20,288.86 501.13,278.86 C498.83,267.71 493.94,260.87 484.65,255.84 C478.84,252.69 477.94,252.50 468.50,252.50 C459.00,252.50 458.18,252.67 452.16,255.94 C445.32,259.64 442.20,263.02 439.06,270.13 C436.62,275.65 435.19,286.00 436.86,286.00 C437.49,286.00 438.00,285.31 438.00,284.46 C438.00,279.42 445.29,270.88 453.00,266.88 C459.19,263.67 470.68,263.57 476.50,266.68 C486.81,272.19 491.46,282.67 489.14,295.21 C488.57,298.28 486.06,306.28 483.55,312.98 C478.27,327.08 476.45,336.45 477.44,344.39 C478.16,350.14 480.00,352.19 480.01,347.25 ZM 525.05 286.00 C532.61,274.58 536.17,264.52 536.76,252.94 C537.56,237.28 533.73,227.50 520.54,211.50 C503.85,191.25 499.16,182.17 498.26,168.37 C496.77,145.50 513.06,126.23 538.26,121.04 C541.43,120.39 543.77,119.44 543.45,118.93 C542.40,117.23 524.75,117.89 516.77,119.93 C505.08,122.92 497.52,127.25 488.90,135.89 C468.07,156.74 466.22,186.25 484.17,211.12 C486.00,213.66 492.00,220.75 497.50,226.86 C508.77,239.40 513.92,247.24 517.06,256.69 C518.88,262.15 519.15,264.78 518.76,273.34 C518.34,282.85 517.57,286.19 512.55,300.50 C511.42,303.71 519.63,294.19 525.05,286.00 ZM 250.00 846.07 C250.00,845.55 250.49,843.86 251.08,842.32 L 252.16 839.50 L 253.62 842.27 C254.43,843.80 254.82,845.49 254.49,846.02 C253.71,847.27 250.00,847.30 250.00,846.07 ZM 296.01 845.75 C296.04,843.57 297.21,840.00 297.90,840.00 C298.83,840.00 300.91,845.76 300.22,846.44 C299.16,847.51 296.00,846.99 296.01,845.75 ZM 349.00 846.61 C349.00,846.40 349.62,844.75 350.38,842.95 C351.70,839.81 351.80,839.76 352.88,841.77 C354.73,845.22 354.26,847.00 351.50,847.00 C350.12,847.00 349.00,846.83 349.00,846.61 ZM 392.55 844.75 C394.05,839.87 394.80,839.33 395.93,842.32 C397.48,846.40 397.29,847.00 394.43,847.00 C392.23,847.00 391.96,846.68 392.55,844.75 ZM 752.52 844.19 C752.24,843.90 752.00,842.62 752.00,841.33 C752.00,839.42 752.53,839.00 754.94,839.00 C758.19,839.00 759.30,840.05 758.44,842.31 C757.87,843.79 753.51,845.18 752.52,844.19 ZM 265.30 733.04 C256.65,727.76 256.82,714.46 265.64,707.06 C268.90,704.32 284.59,697.00 287.19,697.00 C287.64,697.00 288.00,703.67 288.00,711.81 L 288.00 726.63 L 285.25 729.20 C278.91,735.13 271.17,736.62 265.30,733.04 ZM 376.67 694.33 C374.56,692.22 378.22,680.86 382.57,676.06 C387.05,671.09 390.75,669.63 397.20,670.25 C401.53,670.66 402.91,671.32 405.61,674.28 C409.19,678.17 410.99,683.31 410.99,689.64 C411.00,692.50 410.51,693.97 409.42,694.39 C407.26,695.22 377.50,695.17 376.67,694.33 ZM 655.73 735.92 C653.66,734.83 650.62,732.08 648.97,729.80 C639.48,716.70 639.97,686.89 649.87,675.64 C654.46,670.43 666.64,668.21 672.90,671.45 C682.80,676.57 688.56,694.52 686.07,712.44 C684.37,724.69 679.86,732.90 672.80,736.59 C668.88,738.64 660.23,738.30 655.73,735.92 ZM 844.30 733.04 C840.16,730.52 838.00,726.24 838.00,720.58 C838.00,711.31 843.52,705.51 857.50,700.10 C861.90,698.40 865.84,697.01 866.25,697.00 C866.66,697.00 867.00,703.34 867.00,711.10 C867.00,727.29 866.26,729.25 858.68,732.91 C853.29,735.52 848.44,735.56 844.30,733.04 ZM 484.00 701.47 C484.00,700.63 487.33,691.96 491.40,682.22 C502.28,656.19 502.99,654.65 503.72,655.38 C504.96,656.63 523.69,701.49 523.29,702.25 C523.06,702.66 514.13,703.00 503.44,703.00 C486.65,703.00 484.00,702.79 484.00,701.47 ZM 487.50 557.36 C472.12,555.62 458.62,551.83 446.62,545.86 C411.13,528.20 384.63,493.22 372.09,447.44 C368.93,435.90 365.39,415.27 366.40,414.26 C366.73,413.93 371.61,415.10 377.25,416.85 C398.34,423.41 421.56,427.35 455.50,430.12 C474.95,431.71 527.30,431.74 546.50,430.17 C569.41,428.30 603.76,423.62 611.40,421.34 C613.21,420.80 613.27,421.21 612.61,429.09 C611.16,446.55 605.41,466.96 596.87,484.97 C583.16,513.91 559.96,538.48 536.31,549.08 C520.93,555.98 502.69,559.08 487.50,557.36 ZM 625.00 502.17 C625.00,501.71 627.86,495.66 631.36,488.73 C637.96,475.67 645.96,453.30 648.08,442.00 C649.60,433.87 651.77,429.52 656.67,424.80 C661.81,419.84 667.12,417.77 674.64,417.81 C681.62,417.85 685.56,419.50 689.29,423.94 C693.09,428.44 694.31,433.29 693.77,441.67 C692.30,464.60 667.59,488.80 634.06,500.14 C624.48,503.39 625.00,503.27 625.00,502.17 Z" fill="rgb(250,243,231)"/>
</g>
</svg>